<svg width="1140" height="233" viewBox="0 0 1140 233" fill="none" xmlns="http://www.w3.org/2000/svg">
<g opacity="0.1">
<path d="M34.9347 228.663H0V0.635168H138.468V31.1236H34.9347V105.439H123.224V135.928H34.9347V228.663Z" fill="#1B0C27"/>
<path d="M202.604 228.663H170.21V0.635168H202.604V228.663Z" fill="#1B0C27"/>
<path d="M352.247 159.429V60.3417H384.324V228.663H354.471V201.986C345.578 219.453 325.888 231.839 303.021 231.839C269.039 231.839 245.538 211.831 245.538 168.639V60.3417H277.614V162.288C277.614 191.506 292.223 203.574 313.184 203.574C334.78 203.574 352.247 185.789 352.247 159.429Z" fill="#1B0C27"/>
<path d="M498.105 231.839C449.514 231.839 416.802 196.587 416.802 143.55C416.802 93.6885 450.784 57.1659 497.152 57.1659C547.331 57.1659 580.678 97.8171 574.961 152.442H449.514C452.054 186.742 469.204 206.75 497.47 206.75C521.289 206.75 537.803 193.729 543.202 171.815H574.961C566.704 209.291 537.803 231.839 498.105 231.839ZM496.517 81.3026C470.792 81.3026 453.325 99.7227 449.831 131.164H540.979C539.391 100.04 522.559 81.3026 496.517 81.3026Z" fill="#1B0C27"/>
<path d="M641.141 133.705V228.663H609.065V60.3417H638.918V88.2895C650.351 69.5518 669.406 57.1659 692.59 57.1659C727.207 57.1659 750.074 79.397 750.074 119.731V228.663H717.997V130.529C717.997 101.628 705.294 85.4312 681.475 85.4312C659.561 85.4312 641.141 103.851 641.141 133.705Z" fill="#1B0C27"/>
<path d="M887.009 197.54V225.805C877.164 230.251 868.589 231.839 858.426 231.839C827.302 231.839 805.706 215.007 805.706 177.849V87.6543H768.548V60.3417H805.706V10.4804H837.783V60.3417H888.597V87.6543H837.783V170.545C837.783 193.729 848.898 201.986 866.048 201.986C873.67 201.986 880.339 200.716 887.009 197.54Z" fill="#1B0C27"/>
<path d="M958.273 21.2784C958.273 33.3468 948.745 42.5568 935.089 42.5568C921.432 42.5568 911.587 33.3468 911.587 21.2784C911.587 8.89247 921.432 0 935.089 0C948.745 0 958.273 8.89247 958.273 21.2784ZM951.286 228.663H919.209V60.3417H951.286V228.663Z" fill="#1B0C27"/>
<path d="M1062.19 232.157C1016.14 232.157 983.747 195.952 983.747 144.503C983.747 93.6885 1016.78 57.1659 1062.19 57.1659C1103.79 57.1659 1133.97 84.796 1140 128.623H1106.34C1102.84 101.628 1086.01 85.4312 1062.51 85.4312C1034.88 85.4312 1016.78 108.933 1016.78 144.503C1016.78 180.39 1034.88 203.574 1062.51 203.574C1086.33 203.574 1102.84 187.695 1106.65 160.382H1140C1134.28 204.844 1104.43 232.157 1062.19 232.157Z" fill="#1B0C27"/>
</g>
</svg>
